# xmcd
# 
# Track frame offsets:
#	150
#	17495
#	36600
#	55595
#	73323
#	90163
#	106550
#	125725
#	143298
#	163423
# 
# Disc length: 2433 seconds
# 
# Revision: 0
# Processed by: cddbd v1.5PL3 Copyright (c) Steve Scherf et al.
# Submitted via: DCT ver.1.211
# 
DISCID=7e097f0a
DTITLE=Various Artist - 『リトルステップ』イメージアルバム
DYEAR=1900
DGENRE=
TTITLE0=Fire(Opening theme New Version)
TTITLE1=CRAZY FOR YOU
TTITLE2=同級生
TTITLE3=でも、あいこでしょ
TTITLE4=リトル・オアシス
TTITLE5=ジェネ・ライダー
TTITLE6=恋のおきみやげ
TTITLE7=DEしょうね。
TTITLE8=FINGER SNIPER
TTITLE9=Believe in Yourself(Ending theme New Version)
EXTD=
EXTT0=
EXTT1=
EXTT2=
EXTT3=
EXTT4=
EXTT5=
EXTT6=
EXTT7=
EXTT8=
EXTT9=
PLAYORDER=
